Simulation
nRows=27
nColumns=15
endheader
time  TH_x TH_y TH_z SC_y  SC_z  SC_x  AC_y  AC_z  AC_x  GH_y  GH_z  GH_yy  EL_x  PS_y
0.0  0.000000  0.000000  0.000000  -29.261415778383125  -0.24239170922224393  -2.8336886758099653  56.30306915532129  8.999245417494667  -5.538702837229316  31.717186591504074  16.157069022406365  8.628973129821441  27.10363141831036  0.000000
0.038999999999999986  0.000000  0.000000  0.000000  -28.843939402459828  0.045565033150776174  -2.995269634848239  55.95291743965797  9.045623906297282  -5.408575541571397  31.748628773364807  16.188827937361282  8.460722716374587  26.70078785136075  0.000000
0.07799999999999997  0.000000  0.000000  0.000000  -28.475225889593524  0.24711184156191332  -3.236898408506195  55.62336750774874  9.058885730296415  -5.28910015580072  31.653179792042554  16.1540156149096  8.430924834298965  26.287728367597634  0.000000
0.11699999999999997  0.000000  0.000000  0.000000  -28.164840721741285  0.35575408381565266  -3.5482905113435783  55.370714750910864  9.095737487805934  -5.1492686509996375  31.549922806602687  16.139735575328434  8.382736953104045  25.89312987200733  0.000000
0.15599999999999994  0.000000  0.000000  0.000000  -27.92255146915528  0.3773985482485436  -3.8962591975994156  55.23860438355571  9.186451538786898  -4.978037094223752  31.613312524392757  16.244063895037918  8.075249428400687  25.538666698486296  0.000000
0.19499999999999992  0.000000  0.000000  0.000000  -27.763228820194012  0.3382013344346073  -4.229977322547601  55.24478511526068  9.335234499408635  -4.775273261106827  32.032952955706506  16.55448153812774  7.265635854991898  25.24465099909044  0.000000
0.23399999999999993  0.000000  0.000000  0.000000  -27.68900946717042  0.27197373824490434  -4.5046698809571  55.376144663141694  9.535321302828754  -4.553572572673165  32.964705131696796  17.13514901497272  5.753658923618151  25.022902658903114  0.000000
0.2729999999999999  0.000000  0.000000  0.000000  -27.696541082052843  0.20830474010834082  -4.683908674663461  55.607145132170075  9.769756956589703  -4.3312099999619855  34.45234191177648  18.026778315756154  3.468889955642843  24.87123704100417  0.000000
0.3119999999999999  0.000000  0.000000  0.000000  -27.764712035826122  0.17008030180444264  -4.74191395239135  55.906832916147586  10.015576444232392  -4.126290223238844  36.40516461531101  19.242810587713524  0.48561655191650094  24.781316294101217  0.000000
0.35099999999999987  0.000000  0.000000  0.000000  -27.8580317456962  0.1688779956675019  -4.660972506171404  56.252273191787154  10.25034053274838  -3.9537991518727567  38.614558074572855  20.76930198236484  -2.9857982173209314  24.74347710816939  0.000000
0.38999999999999985  0.000000  0.000000  0.000000  -27.929921365625116  0.20589193831196806  -4.431742231366991  56.62623308611692  10.459568889060442  -3.825550251977122  40.83281493013298  22.56520835867392  -6.680902161882703  24.7528666926718  0.000000
0.4289999999999998  0.000000  0.000000  0.000000  -27.93783963840673  0.27669148636611945  -4.050864353891051  57.01892224947585  10.639554004594146  -3.749479989512911  42.85180946407423  24.568850590969486  -10.357434871254263  24.80928513908634  0.000000
0.46799999999999986  0.000000  0.000000  0.000000  -27.8530992869494  0.37584226266977194  -3.516827765147274  57.42355198491166  10.792485018178395  -3.730446255991196  44.554330422226755  26.709787400165254  -13.855395811043383  24.907614272939163  0.000000
0.5069999999999998  0.000000  0.000000  0.000000  -27.666110101293828  0.49934091151993193  -2.8261800099762344  57.835346297517  10.921354955379657  -3.772436391234472  45.91682168096172  28.921065055720913  -17.107991913935876  25.030339429665908  0.000000
0.5459999999999998  0.000000  0.000000  0.000000  -27.387234381234503  0.6473178643821925  -1.9729724195823248  58.24579189062372  11.025799838533322  -3.8790623597130343  46.98818069148578  31.147276168525032  -20.12867543797485  25.153440417027443  0.000000
0.5849999999999997  0.000000  0.000000  0.000000  -27.045883854157193  0.8237527704425984  -0.9519475336459159  58.64075632536188  11.100991188016737  -4.053355618462992  47.86073904788606  33.349103234446154  -22.989832842622175  25.255142889916048  0.000000
0.6239999999999998  0.000000  0.000000  0.000000  -26.683873788452207  1.0336454793116956  0.23736539518419497  59.00248904406954  11.139191183118319  -4.295912347580338  48.63825303907171  35.50397075372942  -25.78894588205363  25.32115463378166  0.000000
0.6629999999999998  0.000000  0.000000  0.000000  -26.34096983143233  1.2803422985814845  1.5887586890256467  59.315828101671976  11.13335932645518  -4.602373592674265  49.40421637696302  37.601990663019166  -28.606511643912054  25.34411705106438  0.000000
0.7019999999999997  0.000000  0.000000  0.000000  -26.04191376102664  1.5643108608297616  3.091186352410311  59.57491098998246  11.080249762851244  -4.961455379705078  50.197858540768486  39.63889158875177  -31.464656561592104  25.32063461564276  0.000000
0.7409999999999998  0.000000  0.000000  0.000000  -25.790214733148044  1.883204545071843  4.731097574883947  59.78553767160675  10.981449919471125  -5.355083801427462  51.00685538735547  41.60873730863905  -34.310659937486314  25.25026914340787  0.000000
0.7799999999999997  0.000000  0.000000  0.000000  -25.57315974742851  2.2315780553085274  6.492129311605893  59.961749880881754  10.842029487280207  -5.760010620049667  51.78102389027756  43.49944792037586  -37.03581096683185  25.136116577263174  0.000000
0.8189999999999997  0.000000  0.000000  0.000000  -25.374661195825823  2.602433972778814  8.350346848129801  60.118813979048035  10.667499897775167  -6.1493096916368835  52.457762817515984  45.293781302059394  -39.51984461544519  24.98826318636705  0.000000
0.8579999999999997  0.000000  0.000000  0.000000  -25.18786108533525  2.9893586599909496  10.26913194040657  60.26769279654677  10.46269276506976  -6.493548448682024  52.98452130203748  46.97335611516637  -41.67189191908962  24.82594038221019  0.000000
0.8969999999999997  0.000000  0.000000  0.000000  -25.019554903507597  3.388605803754696  12.19809453995075  60.414096181606546  10.233178865449796  -6.762120380710709  53.32771040732945  48.52353490358383  -43.447436794766205  24.675025848785175  0.000000
0.9359999999999997  0.000000  0.000000  0.000000  -24.88768461322738  3.799675307398231  14.078612704322335  60.56198857614735  9.988067922385257  -6.925332484994422  53.47154958283873  49.93674191024114  -44.84249408049884  24.55966926049929  0.000000
0.9749999999999996  0.000000  0.000000  0.000000  -24.814713473028352  4.224394010445598  15.852684118170847  60.71753196468303  9.741332975320672  -6.957123650275121  53.41389898158355  51.21504811548725  -45.88085204927869  24.492288635499683  0.000000
1.0139999999999996  0.000000  0.000000  0.000000  -24.820210327935218  4.664713127586815  17.472073994129016  60.8891591724572  9.51159710278886  -6.839061361733353  53.16577984111132  52.369895826600455  -46.60613385553011  24.46847386153713  0.000000
